<svg width="705" height="705" viewBox="0 0 705 705" fill="none" xmlns="http://www.w3.org/2000/svg">
<rect width="705" height="705" fill="#190577"/>
<path d="M221.458 138.87C256.916 111.317 297.914 103 332.302 103C424.021 104.464 457.047 142.164 457.047 142.164H481.923V176.204V208.78H471.68L457.047 184.623C457.047 184.623 427.68 131.939 332.302 131.939C332.302 131.939 281.087 127.523 235.359 173.276C219.297 188.94 213.501 201.141 204.264 221.591C189.934 253.319 180.486 291.135 180.486 330.3C180.486 354.091 180.495 371.293 184.876 393.256C194.758 442.799 202.755 464.824 232.093 493.495C243.254 504.653 252.918 513.311 271.941 521.363C295.354 528.684 305.963 530.148 335.594 530.148C368.518 530.148 384.248 525.979 399.247 516.971C414.246 507.963 425.952 493.546 425.952 493.546H466.924C466.924 493.546 456.759 508.693 448.999 516.971C431.031 536.139 413.148 541.074 399.247 545.887C385.346 550.7 367.786 555.77 335.594 555.77C309.987 555.77 286.31 555.004 265.722 548.815C238.543 540.645 230.465 534.688 208.288 516.971C188.29 500.994 176.901 486.175 163.658 464.264C143.504 430.919 138.051 378.615 138.051 350.431C138.051 331.032 134.062 296.075 149.391 250.873C160.364 218.517 187.071 173.276 187.071 173.276C187.071 173.276 206.458 150.526 221.458 138.87Z" fill="white"/>
<path d="M543.842 266.378C533.96 266.378 158.44 267.477 150.388 267.477C142.336 267.477 130.99 271.873 130.99 284.694V313.633H142.336C142.336 296.416 142.336 296.416 180.034 296.416H327.9V589.104L300.815 623.905H407.323L379.14 589.104V296.416H527.006C548.234 296.416 548.234 296.416 548.234 313.633H557.384V281.397C557.384 281.397 553.724 266.378 543.842 266.378Z" fill="white"/>
<path d="M364.875 530.86L144.158 190.532C138.014 182.989 132.816 179.282 120 173.698L203.455 172.601C198.353 180.573 197.351 184.464 198.331 190.532L378.418 473.041L537.275 190.532V172.601H586.69C572.651 177.152 565.605 180.954 554.845 190.532L364.875 530.86Z" fill="white"/>
<path d="M420.295 187.986H214.51C214.51 187.986 248.748 209.045 249.105 234.388V531.722L231.273 564.561H305.455L286.91 531.722L287.623 389.302C287.623 377.88 298.679 377.88 298.679 377.88C315.085 377.88 328.281 395.013 328.281 395.013V333.619C328.281 333.619 315.085 358.962 298.679 358.962C298.679 358.962 287.623 358.962 287.623 345.755C287.623 341.828 286.91 218.683 286.91 215.47C286.91 212.258 288.693 210.116 293.329 210.116H403.176C423.862 210.116 430.638 229.034 430.638 229.034V199.765C430.638 199.765 429.212 187.986 420.295 187.986Z" fill="white"/>
<path fill-rule="evenodd" clip-rule="evenodd" d="M335.594 555.769C354.355 555.769 368.147 554.048 379.14 551.658V525.7C368.331 528.71 354.927 530.148 335.594 530.148C332.878 530.148 330.321 530.135 327.9 530.108V555.741C330.444 555.762 333.009 555.769 335.594 555.769Z" fill="white"/>
<path fill-rule="evenodd" clip-rule="evenodd" d="M477.736 296.416L494.554 266.507C501.054 266.489 507.052 266.472 512.463 266.458L495.741 296.416H477.736Z" fill="white"/>
<path fill-rule="evenodd" clip-rule="evenodd" d="M265.722 548.815C276.342 552.007 287.783 553.757 299.887 554.702L286.91 531.722L286.94 525.661C282.381 524.522 277.525 523.109 271.941 521.363C262.448 517.345 255.286 513.176 249.105 508.62V531.722L244.05 541.032C250.008 543.715 256.846 546.147 265.722 548.815Z" fill="white"/>
</svg>
